<svg width="120" height="120" viewBox="0 0 120 120" fill="none" xmlns="http://www.w3.org/2000/svg">
  <rect width="120" height="120" rx="32" fill="#0F2040"/>
  <rect x="0.5" y="0.5" width="119" height="119" rx="31.5" stroke="#C8A96E" stroke-opacity="0.25"/>
  <path d="M22 88 C30 60, 55 35, 98 28" stroke="#C8A96E" stroke-opacity="0.08" stroke-width="18" stroke-linecap="round" fill="none"/>
  <path d="M18 96 C28 65, 58 38, 102 30" stroke="#C8A96E" stroke-opacity="0.2" stroke-width="8" stroke-linecap="round" fill="none"/>
  <line x1="52" y1="36" x2="52" y2="84" stroke="white" stroke-width="5.5" stroke-linecap="round"/>
  <path d="M52 36 Q44 60 30 72" stroke="white" stroke-width="5.5" stroke-linecap="round" fill="none"/>
  <line x1="28" y1="72" x2="57" y2="72" stroke="white" stroke-width="5.5" stroke-linecap="round"/>
  <line x1="62" y1="44" x2="62" y2="84" stroke="#C8A96E" stroke-width="5" stroke-linecap="round"/>
  <path d="M62 44 Q71 66 80 44" stroke="#C8A96E" stroke-width="5" stroke-linecap="round" fill="none"/>
  <line x1="80" y1="44" x2="80" y2="84" stroke="#C8A96E" stroke-width="5" stroke-linecap="round"/>
  <path d="M28 90 Q60 98 92 90" stroke="#C8A96E" stroke-width="1.5" stroke-linecap="round" fill="none" stroke-opacity="0.5"/>
</svg>
